<svg width="21" height="21" viewBox="0 0 21 21" fill="none" xmlns="http://www.w3.org/2000/svg">
<path fill-rule="evenodd" clip-rule="evenodd" d="M0.373901 10.5C0.373901 5.0694 4.9291 0.666687 10.5478 0.666687C16.1665 0.666687 20.7217 5.0694 20.7217 10.5C20.7217 15.9306 16.1665 20.3334 10.5478 20.3334C4.9291 20.3334 0.373901 15.9306 0.373901 10.5ZM11.4811 10.5249L15.2617 6.87087C15.5262 6.6152 15.5262 6.19958 15.2617 5.94391C14.9972 5.68825 14.5672 5.68825 14.3026 5.94391L10.5736 9.54816L7.22838 5.94391C6.96386 5.68825 6.53384 5.68825 6.26932 5.94391C6.0048 6.19958 6.0048 6.6152 6.26932 6.87087L9.6145 10.4751L5.83388 14.1292C5.56935 14.3848 5.56935 14.8005 5.83388 15.0561C6.0984 15.3118 6.52842 15.3118 6.79294 15.0561L10.522 11.4519L13.8672 15.0561C14.1317 15.3118 14.5617 15.3118 14.8263 15.0561C15.0908 14.8005 15.0908 14.3848 14.8263 14.1292L11.4811 10.5249Z" fill="#C8C7CC"/>
</svg>
