<svg width="73" height="73" viewBox="0 0 73 73" fill="none" xmlns="http://www.w3.org/2000/svg">
<path d="M36.5002 66.9166C53.2988 66.9166 66.9168 53.2986 66.9168 36.4999C66.9168 19.7013 53.2988 6.08325 36.5002 6.08325C19.7015 6.08325 6.0835 19.7013 6.0835 36.4999C6.0835 53.2986 19.7015 66.9166 36.5002 66.9166Z" stroke="#4CC3E5" stroke-width="3" stroke-linecap="round" stroke-linejoin="round"/>
<path d="M24.3335 9.125H27.3752C21.4439 26.8883 21.4439 46.1117 27.3752 63.875H24.3335" stroke="#4CC3E5" stroke-width="3" stroke-linecap="round" stroke-linejoin="round"/>
<path d="M45.625 9.125C51.5563 26.8883 51.5563 46.1117 45.625 63.875" stroke="#4CC3E5" stroke-width="3" stroke-linecap="round" stroke-linejoin="round"/>
<path d="M9.125 48.6667V45.625C26.8883 51.5563 46.1117 51.5563 63.875 45.625V48.6667" stroke="#4CC3E5" stroke-width="3" stroke-linecap="round" stroke-linejoin="round"/>
<path d="M9.125 27.375C26.8883 21.4437 46.1117 21.4437 63.875 27.375" stroke="#4CC3E5" stroke-width="3" stroke-linecap="round" stroke-linejoin="round"/>
</svg>
