<svg width="67" height="43" viewBox="0 0 67 43" fill="none" xmlns="http://www.w3.org/2000/svg">
<path d="M4.5 42.25H62.5C64.4938 42.25 66.125 40.6937 66.125 38.7917C66.125 36.8896 64.4938 35.3333 62.5 35.3333H4.5C2.50625 35.3333 0.875 36.8896 0.875 38.7917C0.875 40.6937 2.50625 42.25 4.5 42.25ZM4.5 24.9583H62.5C64.4938 24.9583 66.125 23.4021 66.125 21.5C66.125 19.5979 64.4938 18.0417 62.5 18.0417H4.5C2.50625 18.0417 0.875 19.5979 0.875 21.5C0.875 23.4021 2.50625 24.9583 4.5 24.9583ZM0.875 4.20833C0.875 6.11042 2.50625 7.66667 4.5 7.66667H62.5C64.4938 7.66667 66.125 6.11042 66.125 4.20833C66.125 2.30625 64.4938 0.75 62.5 0.75H4.5C2.50625 0.75 0.875 2.30625 0.875 4.20833Z" fill="#4CC3E5"/>
</svg>
