<svg width="519" height="141" viewBox="0 0 519 141" fill="none" xmlns="http://www.w3.org/2000/svg">
<path d="M328.593 55.2238C328.625 55.3498 328.522 54.9797 328.459 54.6017C327.562 49.4597 324.656 46.7273 320.554 47.1762C316.64 47.6014 314.309 50.759 314.293 55.712C314.278 60.4367 314.38 65.1613 314.23 69.886C314.191 71.2089 313.821 72.831 312.986 73.7681C303.687 84.1702 288.827 85.7766 277.858 77.1147C273.504 73.6736 269.874 69.2009 266.322 64.8542C249.408 44.1524 224.265 41.1443 205.114 58.0586C200.343 62.2714 196.547 67.5945 192.303 72.4137C180.775 85.501 164.128 86.1545 151.844 73.8389C148.986 70.9726 146.537 67.689 143.954 64.555C130.26 47.9163 111.204 42.7822 93.4079 51.0661C84.9744 54.9954 78.7536 61.4761 73.3045 68.8781C67.9184 76.1934 61.1858 81.7134 51.7128 82.5166C39.602 83.5402 31.326 77.0753 24.7351 67.878C20.6876 62.2242 17.0811 56.2711 13.0888 50.5779C10.4824 46.869 6.37192 46.1288 3.13553 48.4282C-0.226851 50.8063 -1.03792 54.7198 1.4504 58.4838C6.23018 65.6968 10.758 73.146 16.1913 79.8471C33.7434 101.462 60.3747 102.604 79.9112 82.8237C82.7538 79.9495 85.0689 76.5556 87.6517 73.4216C98.3452 60.4367 112.913 57.468 125.126 66.3267C129.181 69.2639 132.67 73.2405 135.694 77.2801C152.017 99.0686 177.79 103.313 197.539 86.9184C201.721 83.4457 205.225 79.0439 208.587 74.713C222.359 56.9404 242.148 56.8223 255.881 74.5634C257.968 77.2564 260.023 79.9889 262.291 82.5244C274.457 96.1078 292.812 100.47 308.852 93.651C310.498 92.9502 312.104 92.147 314.27 91.1469C314.27 93.1234 314.27 94.5251 314.27 95.9267C314.27 108.392 314.23 120.865 314.301 133.33C314.325 137.504 317.183 140.543 320.916 140.764C324.79 140.984 327.995 137.984 328.389 133.692C328.499 132.519 328.436 131.33 328.436 130.149C328.436 113.873 328.42 97.604 328.467 81.3275C328.467 79.9259 328.404 78.2407 329.097 77.1619C339.562 60.9958 357.548 55.3183 372.399 68.8151C376.722 72.7444 379.974 77.8392 384.014 82.115C394.809 93.525 407.779 99.3206 423.661 95.8873C435.378 93.3518 444.174 86.2412 451.064 76.6737C455.128 71.0356 459.86 66.2795 466.309 63.4211C476.625 58.846 490.617 62.4604 496.366 71.5632C494.72 71.5632 493.326 71.5632 491.933 71.5632C484.586 71.5711 477.231 71.4609 469.884 71.6341C465.545 71.7365 462.514 74.9414 462.545 78.8156C462.577 82.7528 465.632 85.6978 470.081 85.7214C483.727 85.7923 497.382 85.8159 511.028 85.7214C517.461 85.6742 520.824 79.7054 517.17 74.5162C513.556 69.382 509.815 64.2085 505.382 59.8146C491.436 45.9714 473.247 43.3807 456.694 52.4599C449.655 56.3262 444.237 61.9643 439.583 68.4371C434.441 75.5871 427.961 81.0677 418.976 82.3906C408.527 83.9261 400.361 79.3432 393.66 71.7365C390.628 68.2953 388.061 64.4211 384.88 61.1454C374.47 50.4125 361.957 44.7744 346.901 48.0817C340.665 49.4282 334.83 52.7197 328.593 55.2238ZM232.195 26.7893C239.723 26.8523 245.841 20.9071 245.833 13.5287C245.825 6.19764 239.581 -0.062524 232.321 0.000471352C225.068 0.0634667 219.084 5.97716 218.95 13.2138C218.824 20.7732 224.635 26.7263 232.195 26.7893Z" fill="white"/>
<path d="M328.593 55.224C334.822 52.72 340.657 49.4363 346.909 48.0583C361.965 44.7589 374.47 50.3891 384.888 61.122C388.069 64.4056 390.636 68.2719 393.668 71.7131C400.369 79.3197 408.534 83.9027 418.984 82.3672C427.969 81.0443 434.449 75.5637 439.591 68.4137C444.245 61.9409 449.663 56.2949 456.702 52.4365C473.246 43.3573 491.444 45.9479 505.39 59.7912C509.823 64.193 513.563 69.3586 517.178 74.4927C520.824 79.682 517.469 85.6508 511.036 85.698C497.389 85.7925 483.735 85.7689 470.089 85.698C465.64 85.6744 462.584 82.7294 462.553 78.7922C462.521 74.918 465.553 71.7131 469.892 71.6107C477.239 71.4296 484.586 71.5477 491.94 71.5398C493.334 71.5398 494.728 71.5398 496.374 71.5398C490.633 62.4449 476.64 58.8305 466.317 63.3977C459.868 66.2561 455.135 71.0122 451.072 76.6503C444.182 86.2178 435.386 93.3284 423.669 95.8639C407.786 99.2972 394.817 93.5016 384.021 82.0916C379.974 77.8157 376.73 72.7289 372.407 68.7917C357.555 55.2949 339.57 60.9645 329.105 77.1385C328.404 78.2173 328.475 79.9025 328.475 81.3041C328.436 97.5805 328.452 113.849 328.444 130.126C328.444 131.307 328.507 132.496 328.396 133.669C328.011 137.961 324.806 140.961 320.924 140.74C317.183 140.528 314.333 137.48 314.309 133.307C314.238 120.842 314.278 108.369 314.278 95.9033C314.278 94.5017 314.278 93.1 314.278 91.1235C312.12 92.1314 310.514 92.9268 308.86 93.6276C292.82 100.447 274.464 96.0844 262.299 82.501C260.031 79.9655 257.975 77.233 255.889 74.54C242.156 56.7989 222.367 56.917 208.595 74.6896C205.24 79.0205 201.736 83.4223 197.547 86.895C177.798 103.282 152.025 99.0452 135.701 77.2566C132.67 73.2171 129.181 69.2405 125.134 66.3033C112.921 57.4446 98.353 60.4133 87.6595 73.3982C85.0767 76.5322 82.7616 79.9261 79.919 82.8002C60.3746 102.581 33.7512 101.439 16.1991 79.8237C10.7579 73.1226 6.23012 65.6734 1.45821 58.4604C-1.0301 54.7043 -0.219038 50.7907 3.14334 48.4048C6.37973 46.1054 10.4902 46.8456 13.0966 50.5545C17.0889 56.2477 20.7033 62.2008 24.7429 67.8546C31.3259 77.0519 39.6098 83.5168 51.7207 82.4932C61.1857 81.69 67.9262 76.17 73.3123 68.8546C78.7614 61.4527 84.9743 54.972 93.4157 51.0427C111.204 42.7509 130.26 47.8929 143.962 64.5316C146.544 67.6656 148.993 70.9492 151.852 73.8155C164.136 86.1311 180.79 85.4854 192.311 72.3903C196.555 67.5711 200.35 62.2559 205.122 58.0352C224.273 41.1288 249.416 44.129 266.33 64.8308C269.882 69.1696 273.504 73.6502 277.866 77.0913C288.835 85.7532 303.694 84.1468 312.994 73.7447C313.829 72.8076 314.199 71.1855 314.238 69.8626C314.388 65.1458 314.285 60.4133 314.301 55.6886C314.317 50.7356 316.648 47.5858 320.561 47.1527C324.664 46.7039 327.57 49.4363 328.467 54.5783C328.53 54.9799 328.625 55.35 328.593 55.224Z" fill="#201B51"/>
<path d="M232.195 26.7893C224.627 26.7263 218.824 20.7653 218.958 13.2138C219.084 5.97716 225.068 0.0634667 232.329 0.000471352C239.589 -0.062524 245.833 6.19764 245.841 13.5287C245.841 20.9149 239.723 26.8601 232.195 26.7893Z" fill="#201B51"/>
</svg>
