<svg width="800" height="1920" viewBox="0 0 800 1920" fill="none" xmlns="http://www.w3.org/2000/svg">
<rect width="800" height="1920" fill="#4CC3E5"/>
<path d="M259.537 1782.6C256.512 1782.6 253.686 1782.06 251.059 1780.99C248.433 1779.87 246.124 1778.34 244.134 1776.39C242.144 1774.44 240.592 1772.17 239.478 1769.58C238.403 1766.96 237.866 1764.13 237.866 1761.1C237.866 1758.12 238.403 1755.33 239.478 1752.75C240.592 1750.16 242.124 1747.91 244.074 1746C246.064 1744.05 248.373 1742.54 251 1741.46C253.626 1740.39 256.452 1739.85 259.477 1739.85C261.586 1739.85 263.636 1740.15 265.626 1740.75C267.656 1741.34 269.487 1742.18 271.119 1743.25C272.75 1744.33 274.084 1745.56 275.118 1746.96L270.939 1751.31C269.148 1749.6 267.278 1748.31 265.328 1747.43C263.417 1746.56 261.467 1746.12 259.477 1746.12C257.328 1746.12 255.338 1746.5 253.507 1747.25C251.716 1748.01 250.124 1749.07 248.731 1750.42C247.378 1751.77 246.323 1753.36 245.567 1755.19C244.811 1756.99 244.433 1758.96 244.433 1761.1C244.433 1763.17 244.831 1765.14 245.627 1767.02C246.423 1768.85 247.517 1770.46 248.91 1771.85C250.343 1773.24 251.975 1774.34 253.806 1775.13C255.676 1775.93 257.646 1776.33 259.716 1776.33C261.268 1776.33 262.741 1776.11 264.134 1775.67C265.527 1775.19 266.76 1774.54 267.835 1773.7C268.91 1772.87 269.745 1771.91 270.342 1770.84C270.939 1769.72 271.238 1768.55 271.238 1767.31V1766.12L272.133 1766.96H259.358V1760.57H277.865C277.944 1761.01 278.004 1761.44 278.044 1761.88C278.084 1762.28 278.103 1762.68 278.103 1763.08C278.143 1763.43 278.163 1763.79 278.163 1764.15C278.163 1766.9 277.686 1769.4 276.73 1771.67C275.775 1773.9 274.442 1775.83 272.73 1777.46C271.059 1779.09 269.089 1780.37 266.82 1781.28C264.591 1782.16 262.164 1782.6 259.537 1782.6ZM299.633 1782.6C296.409 1782.6 293.543 1781.92 291.036 1780.57C288.568 1779.17 286.618 1777.28 285.185 1774.9C283.792 1772.51 283.096 1769.76 283.096 1766.66C283.096 1764.19 283.494 1761.94 284.29 1759.91C285.086 1757.88 286.18 1756.13 287.573 1754.66C289.006 1753.14 290.698 1751.99 292.648 1751.19C294.638 1750.36 296.787 1749.94 299.095 1749.94C301.125 1749.94 303.016 1750.34 304.767 1751.14C306.518 1751.89 308.031 1752.95 309.304 1754.3C310.618 1755.65 311.613 1757.26 312.289 1759.13C313.006 1760.97 313.344 1762.98 313.304 1765.16L313.244 1767.79H287.633L286.26 1762.9H307.931L307.036 1763.91V1762.48C306.916 1761.16 306.478 1759.99 305.722 1758.96C304.966 1757.92 304.011 1757.11 302.857 1756.51C301.702 1755.91 300.449 1755.61 299.095 1755.61C296.946 1755.61 295.135 1756.03 293.663 1756.87C292.19 1757.66 291.076 1758.86 290.32 1760.45C289.563 1762 289.185 1763.93 289.185 1766.24C289.185 1768.43 289.643 1770.34 290.558 1771.97C291.474 1773.56 292.767 1774.8 294.439 1775.67C296.11 1776.55 298.041 1776.99 300.23 1776.99C301.782 1776.99 303.215 1776.73 304.528 1776.21C305.881 1775.69 307.334 1774.76 308.886 1773.4L311.991 1777.76C311.035 1778.72 309.861 1779.55 308.468 1780.27C307.115 1780.99 305.662 1781.56 304.11 1782C302.598 1782.4 301.105 1782.6 299.633 1782.6ZM323.867 1782V1742.66H330.016V1782H323.867ZM317.36 1756.63V1750.66H337.3V1756.63H317.36ZM374.079 1782.6C370.656 1782.6 367.631 1781.92 365.004 1780.57C362.417 1779.21 360.188 1777.18 358.318 1774.48L362.736 1769.4C364.686 1772.19 366.556 1774.12 368.347 1775.19C370.138 1776.27 372.268 1776.81 374.735 1776.81C376.248 1776.81 377.621 1776.57 378.855 1776.09C380.088 1775.61 381.064 1774.96 381.78 1774.12C382.496 1773.28 382.855 1772.33 382.855 1771.25C382.855 1770.54 382.735 1769.86 382.496 1769.22C382.258 1768.59 381.879 1768.01 381.362 1767.49C380.884 1766.98 380.248 1766.5 379.452 1766.06C378.695 1765.62 377.8 1765.24 376.765 1764.93C375.73 1764.57 374.536 1764.27 373.183 1764.03C371.034 1763.59 369.163 1763.02 367.571 1762.3C365.979 1761.58 364.646 1760.69 363.571 1759.61C362.497 1758.54 361.701 1757.32 361.183 1755.97C360.666 1754.58 360.407 1753.03 360.407 1751.31C360.407 1749.05 361.044 1747.04 362.318 1745.28C363.591 1743.53 365.303 1742.16 367.452 1741.17C369.641 1740.13 372.089 1739.61 374.795 1739.61C378.019 1739.61 380.825 1740.25 383.213 1741.52C385.641 1742.76 387.551 1744.57 388.944 1746.96L384.407 1751.43C383.213 1749.48 381.78 1747.99 380.108 1746.96C378.477 1745.92 376.646 1745.4 374.616 1745.4C373.064 1745.4 371.711 1745.64 370.556 1746.12C369.402 1746.6 368.487 1747.27 367.81 1748.15C367.173 1748.99 366.855 1749.98 366.855 1751.14C366.855 1751.97 367.014 1752.75 367.333 1753.46C367.651 1754.14 368.129 1754.76 368.765 1755.31C369.442 1755.83 370.337 1756.31 371.452 1756.75C372.566 1757.14 373.9 1757.5 375.452 1757.82C377.641 1758.3 379.591 1758.92 381.302 1759.67C383.014 1760.39 384.466 1761.24 385.66 1762.24C386.854 1763.23 387.75 1764.35 388.347 1765.58C388.984 1766.82 389.302 1768.15 389.302 1769.58C389.302 1772.25 388.685 1774.56 387.451 1776.51C386.218 1778.46 384.466 1779.97 382.198 1781.04C379.929 1782.08 377.223 1782.6 374.079 1782.6ZM400.766 1782V1742.66H406.915V1782H400.766ZM394.259 1756.63V1750.66H414.198V1756.63H394.259ZM438.073 1782V1761.58C438.073 1759.83 437.436 1758.42 436.162 1757.34C434.929 1756.23 433.357 1755.67 431.446 1755.67C429.695 1755.67 428.103 1756.03 426.67 1756.75C425.277 1757.46 424.004 1758.56 422.849 1760.03L418.849 1756.03C420.72 1754 422.73 1752.49 424.879 1751.49C427.068 1750.5 429.416 1750 431.924 1750C434.312 1750 436.381 1750.4 438.133 1751.19C439.884 1751.99 441.237 1753.16 442.192 1754.72C443.147 1756.23 443.625 1758.08 443.625 1760.27V1782H438.073ZM428.7 1782.6C426.67 1782.6 424.859 1782.2 423.267 1781.4C421.675 1780.61 420.402 1779.51 419.446 1778.12C418.531 1776.69 418.073 1775.02 418.073 1773.1C418.073 1771.43 418.372 1769.96 418.969 1768.69C419.566 1767.41 420.441 1766.36 421.596 1765.52C422.79 1764.69 424.262 1764.05 426.013 1763.61C427.804 1763.17 429.854 1762.96 432.163 1762.96H440.879L440.341 1767.85H431.386C430.192 1767.85 429.118 1767.97 428.163 1768.21C427.247 1768.41 426.451 1768.75 425.775 1769.22C425.138 1769.66 424.66 1770.2 424.342 1770.84C424.023 1771.43 423.864 1772.15 423.864 1772.99C423.864 1773.86 424.083 1774.64 424.521 1775.31C424.959 1775.95 425.556 1776.45 426.312 1776.81C427.068 1777.16 427.944 1777.34 428.939 1777.34C430.372 1777.34 431.725 1777.1 432.998 1776.63C434.312 1776.11 435.466 1775.41 436.461 1774.54C437.496 1773.66 438.292 1772.69 438.849 1771.61L440.282 1775.61C439.446 1777.01 438.411 1778.22 437.177 1779.25C435.944 1780.29 434.61 1781.1 433.177 1781.7C431.745 1782.3 430.252 1782.6 428.7 1782.6ZM451.397 1782V1750.66H457.605V1760.51L457.008 1758.12C457.446 1756.61 458.183 1755.23 459.217 1754C460.292 1752.77 461.506 1751.79 462.859 1751.08C464.252 1750.36 465.685 1750 467.157 1750C467.834 1750 468.471 1750.06 469.068 1750.18C469.705 1750.3 470.202 1750.44 470.56 1750.6L468.948 1757.28C468.471 1757.09 467.934 1756.93 467.337 1756.81C466.779 1756.65 466.222 1756.57 465.665 1756.57C464.59 1756.57 463.556 1756.79 462.561 1757.22C461.605 1757.62 460.75 1758.2 459.993 1758.96C459.277 1759.67 458.7 1760.53 458.262 1761.52C457.824 1762.48 457.605 1763.53 457.605 1764.69V1782H451.397ZM480.521 1782V1742.66H486.67V1782H480.521ZM474.014 1756.63V1750.66H493.954V1756.63H474.014ZM513.888 1782.6C510.664 1782.6 507.799 1781.92 505.291 1780.57C502.824 1779.17 500.873 1777.28 499.441 1774.9C498.048 1772.51 497.351 1769.76 497.351 1766.66C497.351 1764.19 497.749 1761.94 498.545 1759.91C499.341 1757.88 500.436 1756.13 501.829 1754.66C503.261 1753.14 504.953 1751.99 506.903 1751.19C508.893 1750.36 511.042 1749.94 513.351 1749.94C515.381 1749.94 517.271 1750.34 519.022 1751.14C520.773 1751.89 522.286 1752.95 523.559 1754.3C524.873 1755.65 525.868 1757.26 526.544 1759.13C527.261 1760.97 527.599 1762.98 527.559 1765.16L527.5 1767.79H501.888L500.515 1762.9H522.186L521.291 1763.91V1762.48C521.171 1761.16 520.734 1759.99 519.977 1758.96C519.221 1757.92 518.266 1757.11 517.112 1756.51C515.958 1755.91 514.704 1755.61 513.351 1755.61C511.202 1755.61 509.391 1756.03 507.918 1756.87C506.445 1757.66 505.331 1758.86 504.575 1760.45C503.819 1762 503.441 1763.93 503.441 1766.24C503.441 1768.43 503.898 1770.34 504.814 1771.97C505.729 1773.56 507.023 1774.8 508.694 1775.67C510.366 1776.55 512.296 1776.99 514.485 1776.99C516.037 1776.99 517.47 1776.73 518.783 1776.21C520.137 1775.69 521.589 1774.76 523.142 1773.4L526.246 1777.76C525.291 1778.72 524.117 1779.55 522.724 1780.27C521.37 1780.99 519.918 1781.56 518.366 1782C516.853 1782.4 515.361 1782.6 513.888 1782.6ZM547.316 1782.6C544.451 1782.6 541.884 1781.9 539.615 1780.51C537.386 1779.07 535.615 1777.14 534.302 1774.72C532.988 1772.25 532.332 1769.44 532.332 1766.3C532.332 1763.15 532.968 1760.37 534.242 1757.94C535.555 1755.47 537.327 1753.54 539.555 1752.15C541.784 1750.72 544.311 1750 547.137 1750C548.689 1750 550.182 1750.26 551.615 1750.78C553.087 1751.25 554.401 1751.93 555.555 1752.81C556.709 1753.64 557.605 1754.58 558.241 1755.61C558.918 1756.61 559.256 1757.62 559.256 1758.66L557.465 1758.78V1737.82H563.614V1782H557.465V1774.54H558.659C558.659 1775.49 558.341 1776.45 557.704 1777.4C557.067 1778.32 556.212 1779.17 555.137 1779.97C554.102 1780.77 552.888 1781.4 551.495 1781.88C550.142 1782.36 548.749 1782.6 547.316 1782.6ZM548.152 1777.28C550.023 1777.28 551.674 1776.81 553.107 1775.85C554.54 1774.9 555.654 1773.6 556.45 1771.97C557.286 1770.3 557.704 1768.41 557.704 1766.3C557.704 1764.19 557.286 1762.32 556.45 1760.69C555.654 1759.02 554.54 1757.7 553.107 1756.75C551.674 1755.79 550.023 1755.31 548.152 1755.31C546.282 1755.31 544.63 1755.79 543.197 1756.75C541.764 1757.7 540.63 1759.02 539.794 1760.69C538.998 1762.32 538.6 1764.19 538.6 1766.3C538.6 1768.41 538.998 1770.3 539.794 1771.97C540.63 1773.6 541.764 1774.9 543.197 1775.85C544.63 1776.81 546.282 1777.28 548.152 1777.28Z" fill="#4CC3E5"/>
<path d="M470.593 830.224C470.625 830.35 470.522 829.98 470.459 829.602C469.562 824.46 466.656 821.727 462.554 822.176C458.64 822.601 456.309 825.759 456.293 830.712C456.278 835.437 456.38 840.161 456.23 844.886C456.191 846.209 455.821 847.831 454.986 848.768C445.687 859.17 430.827 860.777 419.858 852.115C415.504 848.674 411.874 844.201 408.322 839.854C391.408 819.152 366.265 816.144 347.114 833.059C342.343 837.271 338.547 842.595 334.303 847.414C322.775 860.501 306.128 861.155 293.844 848.839C290.986 845.973 288.537 842.689 285.954 839.555C272.26 822.916 253.204 817.782 235.408 826.066C226.974 829.995 220.754 836.476 215.305 843.878C209.918 851.193 203.186 856.713 193.713 857.517C181.602 858.54 173.326 852.075 166.735 842.878C162.688 837.224 159.081 831.271 155.089 825.578C152.482 821.869 148.372 821.129 145.136 823.428C141.773 825.806 140.962 829.72 143.45 833.484C148.23 840.697 152.758 848.146 158.191 854.847C175.743 876.462 202.375 877.604 221.911 857.824C224.754 854.949 227.069 851.556 229.652 848.422C240.345 835.437 254.913 832.468 267.126 841.327C271.181 844.264 274.67 848.24 277.694 852.28C294.017 874.069 319.79 878.313 339.539 861.918C343.721 858.446 347.225 854.044 350.587 849.713C364.359 831.94 384.148 831.822 397.881 849.563C399.968 852.256 402.023 854.989 404.291 857.524C416.457 871.108 434.812 875.47 450.852 868.651C452.498 867.95 454.104 867.147 456.27 866.147C456.27 868.123 456.27 869.525 456.27 870.927C456.27 883.392 456.23 895.865 456.301 908.33C456.325 912.504 459.183 915.543 462.916 915.764C466.79 915.984 469.995 912.984 470.389 908.692C470.499 907.519 470.436 906.33 470.436 905.149C470.436 888.873 470.42 872.604 470.467 856.328C470.467 854.926 470.404 853.241 471.097 852.162C481.562 835.996 499.548 830.318 514.399 843.815C518.722 847.744 521.974 852.839 526.014 857.115C536.809 868.525 549.779 874.321 565.661 870.887C577.378 868.352 586.174 861.241 593.064 851.674C597.128 846.036 601.86 841.279 608.309 838.421C618.625 833.846 632.617 837.46 638.366 846.563C636.72 846.563 635.326 846.563 633.933 846.563C626.586 846.571 619.231 846.461 611.884 846.634C607.545 846.736 604.514 849.941 604.545 853.816C604.577 857.753 607.632 860.698 612.081 860.721C625.727 860.792 639.382 860.816 653.028 860.721C659.461 860.674 662.824 854.705 659.17 849.516C655.556 844.382 651.815 839.209 647.382 834.815C633.436 820.971 615.247 818.381 598.694 827.46C591.655 831.326 586.237 836.964 581.583 843.437C576.441 850.587 569.961 856.068 560.976 857.391C550.527 858.926 542.361 854.343 535.66 846.736C532.628 843.295 530.061 839.421 526.88 836.145C516.47 825.413 503.957 819.774 488.901 823.082C482.665 824.428 476.83 827.72 470.593 830.224ZM374.195 801.789C381.723 801.852 387.841 795.907 387.833 788.529C387.825 781.198 381.581 774.937 374.321 775C367.068 775.063 361.084 780.977 360.95 788.214C360.824 795.773 366.635 801.726 374.195 801.789Z" fill="white"/>
<path d="M470.593 830.224C476.822 827.72 482.657 824.436 488.909 823.058C503.965 819.759 516.47 825.389 526.888 836.122C530.069 839.406 532.636 843.272 535.668 846.713C542.369 854.32 550.534 858.903 560.984 857.367C569.969 856.044 576.449 850.564 581.591 843.414C586.245 836.941 591.663 831.295 598.702 827.436C615.246 818.357 633.444 820.948 647.39 834.791C651.823 839.193 655.563 844.359 659.178 849.493C662.824 854.682 659.469 860.651 653.036 860.698C639.389 860.793 625.735 860.769 612.089 860.698C607.64 860.674 604.584 857.729 604.553 853.792C604.521 849.918 607.553 846.713 611.892 846.611C619.239 846.43 626.586 846.548 633.94 846.54C635.334 846.54 636.728 846.54 638.374 846.54C632.633 837.445 618.64 833.83 608.317 838.398C601.868 841.256 597.135 846.012 593.072 851.65C586.182 861.218 577.386 868.328 565.669 870.864C549.786 874.297 536.817 868.502 526.021 857.092C521.974 852.816 518.73 847.729 514.407 843.792C499.555 830.295 481.57 835.964 471.105 852.139C470.404 853.217 470.475 854.902 470.475 856.304C470.436 872.581 470.452 888.849 470.444 905.126C470.444 906.307 470.507 907.496 470.396 908.669C470.011 912.961 466.806 915.961 462.924 915.74C459.183 915.528 456.333 912.48 456.309 908.307C456.238 895.842 456.278 883.369 456.278 870.903C456.278 869.502 456.278 868.1 456.278 866.124C454.12 867.131 452.514 867.927 450.86 868.628C434.82 875.447 416.464 871.084 404.299 857.501C402.031 854.965 399.975 852.233 397.889 849.54C384.156 831.799 364.367 831.917 350.595 849.69C347.24 854.021 343.736 858.422 339.547 861.895C319.798 878.282 294.025 874.045 277.701 852.257C274.67 848.217 271.181 844.24 267.134 841.303C254.921 832.445 240.353 835.413 229.66 848.398C227.077 851.532 224.762 854.926 221.919 857.8C202.375 877.581 175.751 876.439 158.199 854.824C152.758 848.123 148.23 840.673 143.458 833.46C140.97 829.704 141.781 825.791 145.143 823.405C148.38 821.105 152.49 821.846 155.097 825.554C159.089 831.248 162.703 837.201 166.743 842.855C173.326 852.052 181.61 858.517 193.721 857.493C203.186 856.69 209.926 851.17 215.312 843.855C220.761 836.453 226.974 829.972 235.416 826.043C253.204 817.751 272.26 822.893 285.962 839.532C288.544 842.666 290.993 845.949 293.852 848.816C306.136 861.131 322.79 860.485 334.311 847.39C338.555 842.571 342.35 837.256 347.122 833.035C366.273 816.129 391.416 819.129 408.33 839.831C411.882 844.17 415.504 848.65 419.866 852.091C430.835 860.753 445.694 859.147 454.994 848.745C455.829 847.808 456.199 846.185 456.238 844.863C456.388 840.146 456.285 835.413 456.301 830.689C456.317 825.736 458.648 822.586 462.561 822.153C466.664 821.704 469.57 824.436 470.467 829.578C470.53 829.98 470.625 830.35 470.593 830.224Z" fill="#201B51"/>
<path d="M374.195 801.789C366.627 801.726 360.824 795.765 360.958 788.214C361.084 780.977 367.068 775.063 374.329 775C381.589 774.937 387.833 781.198 387.841 788.529C387.841 795.915 381.723 801.86 374.195 801.789Z" fill="#201B51"/>
</svg>
