<svg 
          width="518.6757202148438" 
          height="140.77508544921875" fill="none" 
          xmlns="http://www.w3.org/2000/svg">
          <path d="M 328.5933318592552 55.22380917542575 C 328.62482955417954 55.34979995938665 328.5224754999508 54.97969528896301 328.45948011010216 54.601722937080304 C 327.5617957959586 49.45972378653142 324.6561266643835 46.7273075404041 320.5535517787522 47.17614971266499 C 316.63996326214146 47.60136863493409 314.30912400774554 50.75900685412017 314.2933751602834 55.712019629253 C 314.27762631282127 60.43667413339103 314.38000439495124 65.16132863752905 314.230390342594 69.88598314166708 C 314.1910182224718 71.20888636152273 313.8209067971002 72.83101197012147 312.98621790800667 73.76806849183332 C 303.68652294331184 84.1701828551491 288.82749713616994 85.77656535651747 277.85842439328815 77.11469876559775 C 273.5038678074565 73.67357549186619 269.87376353789915 69.20090870416452 266.32239817557127 64.8542265753768 C 249.40813598360896 44.152364702153605 224.26509119640588 41.144331904306306 205.11449249467643 58.05859466865792 C 200.34259165203898 62.271411526417964 196.5471398451477 67.59451906864183 192.30282546436223 72.41366657274699 C 180.77466859403864 85.50096021005731 164.12813318025354 86.15453510349516 151.84403158481098 73.83893542569513 C 148.98561561642242 70.97264494391206 146.53665446917063 67.6890154479452 143.9538434501747 64.5549946118477 C 130.26022075636553 47.91633699395625 111.20411880622339 42.78220756654875 93.40792047581928 51.06610215759996 C 84.97441244128959 54.995439639976816 78.75361860603915 61.47609938592025 73.30451720225723 68.87805780868439 C 67.91841112965493 76.19339783588623 61.18578004082921 81.7133749940125 51.71284829087225 82.51656624469669 C 39.60198423165541 83.54024134971175 31.32596602700192 77.07533024935526 24.735073306884967 67.87800257432488 C 20.687619523776682 62.224166152879825 17.081132683443922 56.27110039627831 13.088799627376904 50.57789170377271 C 10.48236535918862 46.86903788798581 6.3719166203825095 46.12884835380371 3.1355282894344754 48.428180272561306 C -0.22685070387279183 50.806256357958176 -1.0379160621625951 54.719845382488984 1.4504019600639078 58.48382030266428 C 6.230177406839716 65.69679272549416 10.757971998249296 73.14598976312396 16.191324569236315 79.84712491505766 C 33.74341617906032 101.46241987226003 60.37471308674179 102.6042104762704 79.9111583796873 82.8236562914312 C 82.75382532754004 79.94949139298421 85.06890750320886 76.55561274182719 87.65171852220479 73.42159190572968 C 98.34518612795308 60.43666662375493 112.91287335992007 57.468012855640666 125.12610502004468 66.32674005089947 C 129.1814334072913 69.26390028265789 132.66980174877153 73.240475253455 135.69358046150657 77.28005494460865 C 152.0172608604373 99.06858669293561 177.79025745750937 103.31291736306896 197.53931255640876 86.91836647401836 C 201.72063160601462 83.44574553363108 205.2247373280951 79.04394230045497 208.58711632140236 74.71300900499511 C 222.35948355466786 56.94043388557091 242.14790867040466 56.82231481949847 255.8809043849056 74.56339302323057 C 257.9676267953802 77.25644615066633 260.0228387738842 79.98885972148581 262.2906729492411 82.52442432790212 C 274.4566577354992 96.10780602729896 292.81194319719947 100.47024074423256 308.8521453567855 93.65098953008085 C 310.49789988578016 92.95016578989816 312.1042862753464 92.1469802653115 314.26975284979557 91.14692841028823 C 314.26975284979557 93.123408870343 314.26975284979557 94.52506217067634 314.26975284979557 95.9267096510417 C 314.26975284979557 108.39192305771545 314.2303874560777 120.86501106879405 314.3012572740576 133.3302244754678 C 314.32488054525083 137.5036694376491 317.1832917981161 140.54319893998 320.91576854984453 140.76368281777846 C 324.78998517220884 140.98416669557693 327.99486795244945 137.98400228321708 328.3885891478038 133.69244125881775 C 328.4988310829724 132.51915204944717 328.4358337687796 131.33011400674874 328.4358337687796 130.14895038071424 C 328.4358337687796 113.87251555388164 328.4200916506552 97.60395533145386 328.46733819304166 81.32752050462126 C 328.46733819304166 79.92587302425589 328.4043572240406 78.24073950370529 329.0973065241095 77.16194338817229 C 339.5624158665908 60.995750019152865 357.5475919299343 55.31829842057483 372.3987558993188 68.81506097344575 C 376.7218144440788 72.74439845582262 379.9739516078218 77.83915073090613 384.0135311622735 82.1149629219776 C 394.8093663689296 93.52500336923967 407.7785472599547 99.32057215648113 423.6612603406281 95.8873231116726 C 435.3784032044905 93.35175850525629 444.17417306792754 86.24115800483911 451.0642939866295 76.67373293434504 C 455.1274966025327 71.03564534622784 459.86001428647 66.27949167350688 466.30916713595104 63.42107560838774 C 476.6246627546216 58.84603520860523 490.6175001296713 62.460404660506505 496.3658297320382 71.56323933556976 C 494.72007520304356 71.56323933556976 493.32629824394945 71.56323933556976 491.93252522741415 71.56323933556976 C 484.5856877821782 71.57111375956731 477.230975732804 71.46086893855188 469.884138287568 71.63410626943157 C 465.54533053453133 71.73647377993308 462.51367174383745 74.94136051731742 462.5451694387618 78.8155772707877 C 462.5766671336861 82.75278935756938 465.63194930264416 85.69781534790935 470.0809988852452 85.72143861990202 C 483.7273754561515 85.7923084402802 497.38162663119607 85.81593170787269 511.02800320210235 85.72143861990202 C 517.4614075942702 85.67419207591668 520.8237768250509 79.70539405118848 517.170044237297 74.51614840065604 C 513.5556835437895 69.38202385451198 509.81535546779384 64.20851652381687 505.3820547179877 59.814587895045584 C 491.43645069946007 45.971350257998246 473.24651765635707 43.38066773878887 456.69447824319576 52.459878600637644 C 449.65474360068316 56.32622074970309 444.2371548817627 61.96431509649277 439.58337047282794 68.43709197743168 C 434.44137149628756 75.58706906695014 427.9607341230794 81.06766935436377 418.97601656524625 82.39057257421942 C 408.5266556800781 83.92608532561246 400.36083537361924 79.34315924471188 393.6597004484562 71.73646561320383 C 390.6280473193237 68.29534233947227 388.06096579581043 64.42112783889283 384.87969856738545 61.145367502844636 C 374.46970995194545 50.41252726416211 361.9572666144347 44.77444568375378 346.9013674432346 48.08170368645768 C 340.6648236487439 49.42823025017556 334.82987565374594 52.719742235665144 328.5933318592552 55.22380917542575 Z M 232.1946478459524 26.7892660079261 C 239.72259743155243 26.85226139990655 245.8410062133254 20.90706192844113 245.83313178959432 13.528726567927876 C 245.82525736586325 6.197637331916379 239.58083653393618 -0.06252403998165292 232.3206174813313 0.00047135199879737007 C 225.0682730328648 0.06346674397924766 219.0837262746588 5.977158922071679 218.94986106683024 13.21375440715244 C 218.82387028713293 20.77320191415873 224.63520059476258 26.726270615945648 232.1946478459524 26.7892660079261 Z" fill="rgb(255,255,255)"/>
        </svg>