<svg width="31" height="31" viewBox="0 0 31 31" fill="none" xmlns="http://www.w3.org/2000/svg">
<rect width="31" height="31" rx="10" fill="#D5F6E8"/>
<path fill-rule="evenodd" clip-rule="evenodd" d="M22.9412 8.052C20.9665 6.085 18.3412 5.00088 15.5444 5C9.78116 5 5.09056 9.66725 5.08792 15.4055C5.08704 17.2395 5.56885 19.0297 6.48411 20.6082L5 26L10.5426 24.5527C12.0697 25.3822 13.7895 25.8189 15.5391 25.8197H15.5435C21.3059 25.8197 25.9974 21.1516 26 15.4134C26.0018 12.6335 24.915 10.0181 22.9412 8.052ZM15.5444 24.0619H15.5409C13.9812 24.0619 12.4522 23.6445 11.1176 22.8561L10.8002 22.6689L7.51103 23.5273L8.38937 20.3352L8.18275 20.008C7.31233 18.6308 6.85338 17.0391 6.85426 15.4055C6.85602 10.6368 10.7553 6.757 15.5488 6.757C17.8699 6.757 20.0521 7.65825 21.6927 9.29275C23.3333 10.9281 24.2363 13.1007 24.2354 15.4116C24.2328 20.1821 20.3344 24.0619 15.5444 24.0619ZM20.3115 17.5842C20.0504 17.4539 18.7658 16.8247 18.5258 16.7381C18.2867 16.6515 18.1126 16.6077 17.9376 16.8676C17.7627 17.1275 17.2633 17.7137 17.1103 17.8879C16.9582 18.0611 16.8052 18.083 16.5441 17.9526C16.2829 17.8223 15.4407 17.5484 14.4427 16.662C13.6664 15.9725 13.1415 15.1211 12.9894 14.8604C12.8373 14.5996 12.9736 14.4596 13.1037 14.3301C13.2215 14.2137 13.3648 14.0265 13.4958 13.8743C13.6277 13.7238 13.6708 13.6153 13.7587 13.4411C13.8458 13.2679 13.8027 13.1156 13.7367 12.9853C13.6708 12.8558 13.1485 11.5756 12.9314 11.055C12.7195 10.5475 12.5041 10.6166 12.3432 10.6087C12.1911 10.6009 12.017 10.6 11.842 10.6C11.6679 10.6 11.3848 10.6647 11.1457 10.9255C10.9066 11.1862 10.2313 11.8154 10.2313 13.0946C10.2313 14.3748 11.1677 15.6111 11.2978 15.7844C11.4279 15.9576 13.1398 18.5844 15.7607 19.7105C16.384 19.9783 16.8711 20.1384 17.2501 20.2582C17.8761 20.456 18.4458 20.428 18.896 20.3615C19.398 20.2871 20.4416 19.7324 20.6597 19.1251C20.8777 18.5179 20.8777 17.9964 20.8118 17.8888C20.7467 17.7794 20.5726 17.7146 20.3115 17.5842Z" fill="#1B7E53"/>
</svg>
